<svg xmlns="http://www.w3.org/2000/svg" viewBox="0 0 586.98 1022.02"><title>Nick Hyla Silouhette</title><g id="Layer_2" data-name="Layer 2"><g id="Layer_3" data-name="Layer 3"><path d="M580.6,368.07c-1.69-.95-4.12-1.27-9-1.9-1.22-.16-2.22-.26-3.13-.33a1,1,0,0,0,.19-.58c0-2.28-2.26-12.93-.75-28.25.43-4.36.86-6.05,2-15.25,1.36-11,2.09-19.53,2.25-21.5,2-24.32-2.26-50.32-3-54.75a243.35,243.35,0,0,0-10-39.5,247.12,247.12,0,0,0-18-39.5,209.46,209.46,0,0,0-22.25-33c-7.11-8.56-13.07-14.25-22.5-23.25-10.2-9.73-18.16-16.45-26.25-23.25-6.54-5.5-20.87-17.37-41-32.25-16.89-12.49-25.54-18.84-35.75-24C386.8,27.41,379,24.56,363.67,19c-26.44-9.58-39.66-14.37-52-16.5a167.48,167.48,0,0,0-41.75-2,143.91,143.91,0,0,0-43.5,9.75c-9.63,3.89-11.38,6-23.75,10.5-15.64,5.75-17.83,4.28-26,8.5-5.34,2.76-6.85,4.64-25,23-18.33,18.54-22,21.87-26.5,25.5-9.66,7.77-12.41,8.21-22,15a191.38,191.38,0,0,0-41,40.5c-7,9.3-16.05,21.63-22.75,39.75-3.18,8.6-3.05,11-8,25.5-7,20.4-9.6,22.56-13,33.25C13.67,246.66,14,260.44,14.67,288a433.26,433.26,0,0,0,3.5,44.5c2.46,20.14,5.59,36.46,6.55,40.88-16.66,3.39-21,4.72-23.2,8.87-1.8,3.42-1.6,7.73-1.42,11.58.16,3.36.35,6.6,2.5,9.5,1.44,1.94,2.42,1.93,5.67,4.33,1.2.89,6.27,4.65,9.17,9.5.16.27.29.54.44.81-.93,10.45-1.42,21.68-1.9,25.78-1.05,9-.24,13.71,0,45.5.16,21.07.55,36.46.75,44.75,1.42,59.29.27,67.77,1.5,106,1.94,60.49,6.83,102.34,10.25,131,4.6,38.5,7.61,51.54,10.5,62,5.05,18.25,13.47,47.69,35.5,80A236.43,236.43,0,0,0,139,977c28.89,18.89,54.45,26,75,31.5,29.43,7.91,95.76,25.72,171,.5,14.55-4.88,45-15.39,76-41.5,28.73-24.17,43.84-49.79,55.33-69.67,6.81-11.77,22.41-40.48,34.67-86.33,4.56-17,10.22-42.35,15.5-158.5.55-12.1,2.44-54.84,3.83-127.17,1.32-68.43,1.95-103.76-.14-111.38.35-1.24.71-2.45,1.11-3.62a25.56,25.56,0,0,1,7-11.17c2-1.79,2.64-1.7,4-2.89C589.29,390.44,588.26,372.38,580.6,368.07Zm-28.28,62.56a189.92,189.92,0,0,1-3.5,25.75,197.31,197.31,0,0,1-5.5,20c-2.37,7.5-3.6,11.35-6.12,16.25-2.28,4.43-4.59,8.92-8.75,13.13-6.85,6.93-14.79,9.11-24.38,11.75-6.73,1.85-11.82,2.44-22,3.63-8.9,1-15.53,1.38-23,1.75-8,.4-17.31.85-29.62.63-16.2-.29-24.68-1.52-27.75-2-11-1.71-15.5-3.55-18.25-4.87a53.83,53.83,0,0,1-14.25-10.25c-5.91-5.87-8.71-11.26-13.5-20.5-4.11-7.91-6.47-14.09-9.87-23-2.07-5.4-4.35-11.41-6.75-19.62a142,142,0,0,1-4.62-19.62c-1.55-10.08-2.33-15.12-.37-21a32.47,32.47,0,0,1,8.63-13.12,36.8,36.8,0,0,1,8.5-5.83,61.23,61.23,0,0,1,16.42-5.75c12.23-2.8,21.92-4.18,23.83-4.42,16.32-2,29.13-2.76,33.5-3,14.34-.77,24.87-.87,44.38-1,10.54-.07,18.49-.2,30.13,0a113,113,0,0,1,19.75,1.63c11.47,2.08,17,5.14,19.25,6.5,3.27,2,6.56,4,9.38,7.75,2.09,2.81,4.33,7.16,5.13,20.88A170.24,170.24,0,0,1,552.32,430.63ZM42.42,321.51c1.67-11.2,3.15-10.91,4.25-19.5,1.92-15-2-20.75-2.25-34.5-.18-9.31,2-17,6.25-32.5a279.88,279.88,0,0,1,23.75-59c7.62-13.84,14.8-26.88,26.75-39.75,22.22-23.92,47.62-32.9,78-43.25,37.11-12.64,67.25-15.29,92.75-17.5a455.9,455.9,0,0,1,70.5-.67c29,2,43.55,3,62,10.33,22.59,9,39.57,22.72,50.25,31.33a273.86,273.86,0,0,1,24.25,22.25c7.52,7.68,16.35,16.7,25.5,29.75,11.08,15.8,16.91,29.34,21,39,9.45,22.29,16,37.78,15.25,58.25-.35,9.47-2,11.63-1.75,22.5.3,15.9,4.87,17.95,7.25,37.25.73,5.89,1,14.09,1.5,30.5q.12,3.76.21,6.79c-6.64-1.15-14.41-1.76-25.44-2.63-19.16-1.5-36.88-1.35-54.17-1.17-8,.08-28.18.39-54.33,2-26.8,1.65-35.48,3.18-39,3.83a233.7,233.7,0,0,0-36.17,9.5c-14,4.93-14.19,6.56-24,8.83a105.83,105.83,0,0,1-31.67,2.33,96.22,96.22,0,0,1-14.83-2.17,88.6,88.6,0,0,1-9.67-2.83c-13.08-4.6-35.1-9.67-43.17-11.33C203,366.6,192.1,366,170.28,364.84c-8.88-.48-27.16-1.27-50.33-.67-19.19.5-19.23,1.37-41,2.17a264,264,0,0,0-28.83,2.17c-2,.27-5,.81-9.55,1.71,0-5.09.19-11.52.53-20.71C42,325.65,42,324.16,42.42,321.51ZM34.82,408c.77-7.72,1.81-10.66,2.88-12.87a28.71,28.71,0,0,1,11.13-12.25c3.06-1.79,6.54-2.49,13.5-3.87a183.84,183.84,0,0,1,20.5-2.62c3.6-.33,6.69-.57,9.38-.75,7.23-.5,15.66-.92,25.63-1.12,3.71-.08,18.25-.34,38.5.38,14.19.5,24.82,1.27,32.13,1.88a236.77,236.77,0,0,1,31.5,4.5A70.54,70.54,0,0,1,238.82,388c4.3,2.3,7.36,4,10.13,7.5,4.13,5.27,4.86,11.16,5.38,15.75.3,2.7.41,5.87-.5,13.75a169.47,169.47,0,0,1-4.62,25.5,181.78,181.78,0,0,1-7,21,154,154,0,0,1-10,21.75,89.35,89.35,0,0,1-9.62,14.38c-3.2,3.84-6.18,7.42-11.12,10.87-6.88,4.81-13.42,6.49-18.5,7.75a83.1,83.1,0,0,1-18.87,2.25c-17.32.51-31,.27-38.62.13-9.27-.17.2,0-36-1.5a80,80,0,0,1-14.87-1.87A58,58,0,0,1,69.45,520c-3.76-2-8.34-4.36-12.5-9.25-2.84-3.34-4.18-6.4-6.75-12.37a140.71,140.71,0,0,1-6-17.12c-2.88-9.95-4.64-18.19-5.62-23.25a221.55,221.55,0,0,1-3.87-27A127.65,127.65,0,0,1,34.82,408ZM422.9,750.09c-.64,8.78-1.14,16.8-7.67,26.92-2.23,3.45-13.24,20.06-36.5,34.5-14.85,9.22-22.27,13.83-31.42,11.61C333.32,819.72,326,803,325,800.8c-3-6.76-4.21-14.74-4.78-18.42a104,104,0,0,1-1.12-12c-.09-2.81.21-4.2-.62-6.15-.62-1.46-7-1.25-10.33-1.15-10.39.32-16.08.66-25.4.42-4.23-.11-8-.48-8.12,1.56a103.41,103.41,0,0,1-1.28,11.51,79.47,79.47,0,0,1-8.43,23.91c-5,8.88-13.19,23.55-26.95,26.35-11.49,2.34-21-4.78-38-17.44-12.66-9.45-23.49-17.53-29.67-32.89-1.89-4.7-3.5-14.7-2.83-28.75.25-5.25,2.93-18.08,23.83-36.25a156.07,156.07,0,0,1,56.33-31c18.07-5.52,51.75-12.43,91.08-2.25a159.64,159.64,0,0,1,67,37C425.73,733.88,423.26,745.09,422.9,750.09Zm131-206.67a415.16,415.16,0,0,1-17,60.67c-4.88,13.11-13.81,30.85-31.67,66.33-28.72,57.07-27.5,54-32.5,70.17-1.22,4-2.67,12.25-7.75,12.25-2.93,0-7-10.58-7.83-13.75-.26-4.63-3.46-15.84-5.09-22.77-2.5-10.64-5.9-15.76-8.22-20,0,0-8.92-13.77-18.86-21-16.25-11.83-33.79-13.44-49.67-23.5a147.55,147.55,0,0,0-47.5-19.25c-19.67-2.58-37.33-2.67-63.33-.17-10.6,1-25.51,8.84-43.33,17.75-12.17,6.08-29.79,9.58-42.42,18-21.88,14.52-42.35,43-49.25,64.46-3.08,9.58-7.35,30-10.75,32.79-1.44,1.19-3,.09-5.12-1.62-11.25-9.31-12.16-17.63-15.54-28-4.46-13.7-6.28-20.38-18.58-50.42-17.09-41.7-27.67-74.73-30.75-84.5-6.4-20.32-10.73-34.13-14.75-54a396.27,396.27,0,0,1-7-50.5c-1.1-15.93-1-29.07-.73-36.83a184.67,184.67,0,0,0,9.7,33c5.18,12.77,8.32,20.25,16.17,27.33s16.42,10.14,21.83,12c7.74,2.66,13.73,3.34,26.67,4.33,22.3,1.7,34.13,2.61,52.67,2.5,16.47-.1,25-.92,32.83-2.17,8.41-1.34,13.29-2.16,19.67-4.83a69.28,69.28,0,0,0,25-18.33c3.5-3.91,5.89-7.66,10.67-15.17a258.49,258.49,0,0,0,14.33-25.83c6.37-12.85,9.56-19.27,10.83-24.5a105,105,0,0,1,5.17-16.67c2.12-5.18,3.71-7.76,6.17-10a22.31,22.31,0,0,1,9.67-5,28.13,28.13,0,0,1,12.67-.17c4.49.76,8.21,1.39,11.5,4.33,2.47,2.21,3.55,4.69,5.17,8.5a49.16,49.16,0,0,1,3.17,10.67c1,5.72,4,11.92,10,24.33,4.32,9,9.18,19,17.67,31,7.74,10.93,12.2,17.22,20.67,23.5a75.86,75.86,0,0,0,28.83,12.83c7.08,1.67,16.6,1.8,35.33,2,11.25.12,18.26.19,28.33-.33a342.24,342.24,0,0,0,34.83-3.67c9.5-1.49,14.36-2.27,19.67-4.17s14.16-5.17,22.5-13.33a57.83,57.83,0,0,0,10.83-15c3.31-6.18,4.59-10.71,8-23.33,2.84-10.52,4.93-18.26,6.31-23.47l-.53,11.55C561.26,490.12,560.06,513.06,553.9,543.42Z"/></g></g></svg>